<svg height="512" viewBox="0 0 60 60" width="512" xmlns="http://www.w3.org/2000/svg"><g id="Page-1" fill="none" fill-rule="evenodd"><g id="018---Dirty-Diaper" fill="rgb(0,0,0)" fill-rule="nonzero" transform="translate(0 -1)"><path id="Shape" d="m58 28.184v-7.184c0-1.6568542-1.3431458-3-3-3h-50c-1.65685425 0-3 1.3431458-3 3v7.184c-1.19435086.4222546-1.99474861 1.5492146-2 2.816v5c.00525139 1.2667854.80564914 2.3937454 2 2.816v3.834c-.00065115 2.0149347.8669959 3.932431 2.381 5.262l11.267 9.888c1.0410051.9050519 2.2782793 1.5555281 3.614 1.9.026 0 .047.02.073.023h.022c.232.058.459.128.7.169l3.2.541c4.4657287.750005 9.0252713.750005 13.491 0l3.2-.54c.237-.041.464-.111.7-.169h.02c.025 0 .044-.017.068-.021 1.336691-.344281 2.5749832-.9947524 3.617-1.9l11.269-9.889c1.5134148-1.33058 2.3799851-3.2488416 2.378-5.264v-3.834c1.1943509-.4222546 1.9947486-1.5492146 2-2.816v-5c-.0052514-1.2667854-.8056491-2.3937454-2-2.816zm-15-.184v-2h13v2zm-39 0v-2h13v2zm6-4v-4h4v4zm6 0v-4h4v4zm6-4h4v4h-4zm6 0h4v4h-4zm6 0h4v4h-4zm6 0h4v4h-4zm6 4v-4h4v4zm10-3v3h-4v-4h3c.5522847 0 1 .4477153 1 1zm-51-1h3v4h-4v-3c0-.5522847.44771525-1 1-1zm-3 11c0-.5522847.44771525-1 1-1h18c.5522847 0 1 .4477153 1 1v5c0 .5522847-.4477153 1-1 1h-18c-.55228475 0-1-.4477153-1-1zm15 16.229c-3.821-3.616-9.78-3.724-12.878-3.487-.08093538-.3583665-.12185245-.7246078-.122-1.092v-3.65h13zm-11.3-.821c-.24544871-.2171369-.46886516-.4579711-.667-.719 2.953-.137 7.745.169 10.721 3.1 1.967 1.94 2.887 4.81 2.759 8.527-.5583127-.2671641-1.0777314-.6089578-1.544-1.016zm30.715 12.056c-4.2466548.7125036-8.5823452.7125036-12.829 0l-3.11-.525c.2695431-2.7785336-.2416275-5.5771576-1.476-8.081v-10.858h2c1.6568542 0 3-1.3431458 3-3v-5c0-1.6568542-1.3431458-3-3-3h-2v-2h22v2h-2c-1.6568542 0-3 1.3431458-3 3v5c0 1.6568542 1.3431458 3 3 3h2v10.858c-1.2343725 2.5038424-1.7455431 5.3024664-1.476 8.081zm19.585-19.464v3.65c-.0001476.3673922-.0410646.7336335-.122 1.092-3.1-.237-9.057-.129-12.878 3.487v-8.229zm-1.7 7.409-11.271 9.891c-.4654811.4077241-.9838184.7508156-1.541 1.02-.128-3.718.792-6.588 2.759-8.528 2.976-2.935 7.768-3.241 10.722-3.1-.1991973.2601493-.4232547.5002825-.669.717zm3.7-10.409c0 .5522847-.4477153 1-1 1h-18c-.5522847 0-1-.4477153-1-1v-5c0-.5522847.4477153-1 1-1h18c.5522847 0 1 .4477153 1 1z"/><path id="Shape" d="m9.949 15.689c.1827106.1923238.4343518.304169.6995423.3109206.2651905.0067517.5221972-.0921435.7144577-.2749206 1.1266453-1.0131515 1.7244676-2.4883452 1.621-4-.1651882-1.6036179-1.0591928-3.0419915-2.424-3.9-.89905262-.53852953-1.48071406-1.48000076-1.56-2.525-.0007683-1.00051659.48387417-1.93923177 1.3-2.518.4324389-.34379726.5042972-.97306104.1605-1.40549999-.3437973-.43243895-.97306104-.50429726-1.4055-.16050001-1.31313366.97588862-2.07762529 2.52310065-2.055 4.159.10712693 1.68070974 1.01479602 3.2077514 2.44 4.105.8566255.5209144 1.4279668 1.4050015 1.551 2.4.049633.9091171-.3217376 1.790523-1.007 2.39-.19370944.1830236-.3063508.4357967-.31292204.7022133-.00657123.2664167.09347131.5244356.27792204.7167867z"/><path id="Shape" d="m19.949 15.689c.1827106.1923238.4343518.304169.6995423.3109206.2651905.0067517.5221972-.0921435.7144577-.2749206 1.1266453-1.0131515 1.7244676-2.4883452 1.621-4-.1651882-1.6036179-1.0591928-3.0419915-2.424-3.9-.8990526-.53852953-1.4807141-1.48000076-1.56-2.525-.0007683-1.00051659.4838742-1.93923177 1.3-2.518.432439-.34379726.5042973-.97306104.1605-1.4055s-.973061-.50429726-1.4055-.1605c-1.3131337.97588862-2.0776253 2.52310065-2.055 4.159.1071269 1.68070974 1.014796 3.2077514 2.44 4.105.8566255.5209144 1.4279668 1.4050015 1.551 2.4.049633.9091171-.3217376 1.790523-1.007 2.39-.1937094.1830236-.3063508.4357967-.312922.7022133-.0065713.2664167.0934713.5244356.277922.7167867z"/><path id="Shape" d="m29.949 15.689c.1827106.1923238.4343518.304169.6995423.3109206.2651905.0067517.5221972-.0921435.7144577-.2749206 1.1266453-1.0131515 1.7244676-2.4883452 1.621-4-.1651882-1.6036179-1.0591928-3.0419915-2.424-3.9-.8990526-.53852953-1.4807141-1.48000076-1.56-2.525-.0007683-1.00051659.4838742-1.93923177 1.3-2.518.4324389-.34379726.5042972-.97306103.1605-1.40549999-.3437973-.43243895-.973061-.50429725-1.4055-.16050001-1.3131337.97588862-2.0776253 2.52310065-2.055 4.159.1071269 1.68070974 1.014796 3.2077514 2.44 4.105.8566255.5209144 1.4279668 1.4050015 1.551 2.4.049633.9091171-.3217376 1.790523-1.007 2.39-.1937094.1830236-.3063508.4357967-.312922.7022133-.0065713.2664167.0934713.5244356.277922.7167867z"/><path id="Shape" d="m39.949 15.689c.1827106.1923238.4343518.304169.6995423.3109206.2651905.0067517.5221972-.0921435.7144577-.2749206 1.1266453-1.0131515 1.7244676-2.4883452 1.621-4-.1651882-1.6036179-1.0591928-3.0419915-2.424-3.9-.8990526-.53852953-1.4807141-1.48000076-1.56-2.525-.0001196-.99981061.4844505-1.93764004 1.3-2.516.4329912-.34379726.5052972-.97350875.1615-1.40649998-.3437973-.43299123-.9735088-.50529725-1.4065-.16150002-1.3131337.97588862-2.0776253 2.52310065-2.055 4.159.1071269 1.68070974 1.014796 3.2077514 2.44 4.105.8566255.5209144 1.4279668 1.4050015 1.551 2.4.049633.9091171-.3217376 1.790523-1.007 2.39-.1937094.1830236-.3063508.4357967-.312922.7022133-.0065713.2664167.0934713.5244356.277922.7167867z"/><path id="Shape" d="m49.949 15.689c.1827106.1923238.4343518.304169.6995423.3109206.2651905.0067517.5221972-.0921435.7144577-.2749206 1.1266453-1.0131515 1.7244676-2.4883452 1.621-4-.1651882-1.6036179-1.0591928-3.0419915-2.424-3.9-.8990526-.53852953-1.4807141-1.48000076-1.56-2.525-.0001196-.99981061.4844505-1.93764004 1.3-2.516.4329912-.34379726.5052972-.97350875.1615-1.40649998-.3437973-.43299123-.9735088-.50529725-1.4065-.16150002-1.3131337.97588862-2.0776253 2.52310065-2.055 4.159.1071269 1.68070974 1.014796 3.2077514 2.44 4.105.8566255.5209144 1.4279668 1.4050015 1.551 2.4.049633.9091171-.3217376 1.790523-1.007 2.39-.1937094.1830236-.3063508.4357967-.312922.7022133-.0065713.2664167.0934713.5244356.277922.7167867z"/></g></g></svg>