<svg id="Capa_1" enable-background="new 0 0 511.992 511.992" height="512" viewBox="0 0 511.992 511.992" width="512" xmlns="http://www.w3.org/2000/svg" xmlns:xlink="http://www.w3.org/1999/xlink"><linearGradient id="SVGID_1_" gradientUnits="userSpaceOnUse" x1="255.996" x2="255.996" y1="420.996" y2="90.996"><stop offset="0" stop-color="#5558ff"/><stop offset="1" stop-color="#00c0ff"/></linearGradient><g><g><path d="m511.99 165.995c0-8.284-6.716-15-15-15h-14.99v-45c0-8.284-6.716-15-15-15h-422c-8.284 0-15 6.716-15 15v45h-15c-8.284 0-15 6.716-15 15v60c0 8.284 6.716 15 15 15h15v45c0 8.284 6.716 15 15 15h14.066c61.964 0 114.434 45.94 122.049 106.86.938 7.506 7.319 13.14 14.884 13.14h120c7.565 0 13.946-5.633 14.884-13.14 7.615-60.92 60.085-106.86 122.049-106.86h14.068c8.284 0 15-6.716 15-15v-45h14.992c8.279 0 15-6.717 15-15zm-481.99 45.001v-30h106c8.271 0 15 6.729 15 15s-6.729 15-15 15zm422 60.003c-72.147.432-133.772 51.022-148.651 119.997h-94.697c-14.88-68.975-76.505-119.565-148.652-119.997v-30.003h76c24.813 0 45-20.187 45-45s-20.187-45-45-45h-76v-30h392v30h-76c-24.813 0-45 20.187-45 45s20.187 45 45 45h76zm-76-60.003c-8.271 0-15-6.729-15-15s6.729-15 15-15h106l.001 30z" fill="url(#SVGID_1_)"/></g></g></svg>