<svg id="Capa_1" enable-background="new 0 0 512 512" height="512" viewBox="0 0 512 512" width="512" xmlns="http://www.w3.org/2000/svg" xmlns:xlink="http://www.w3.org/1999/xlink"><linearGradient id="SVGID_1_" gradientUnits="userSpaceOnUse" x1="256" x2="256" y1="421" y2="91"><stop offset="0" stop-color="#5558ff"/><stop offset="1" stop-color="#00c0ff"/></linearGradient><g><g><path d="m497 91c-16.48 0-475.518 0-482 0-8.284 0-15 6.716-15 15v90c0 8.284 6.716 15 15 15h16.504c7.591 116.089 103.996 210 224.496 210 120.573 0 216.91-93.98 224.496-210h16.504c8.284 0 15-6.716 15-15v-90c0-8.284-6.716-15-15-15zm-467 90v-60h91c16.542 0 30 13.458 30 30s-13.458 30-30 30zm46.008 90h2.119c67.01 0 122.584 49.865 131.588 114.435-60.524-14.79-110.06-57.898-133.707-114.435zm226.277 114.435c9.004-64.57 64.578-114.435 131.588-114.435h2.119c-23.647 56.537-73.183 99.645-133.707 114.435zm143.465-144.435h-11.876c-85.264 0-155.427 65.86-162.31 149.378-5.136.408-10.325.622-15.564.622s-10.428-.214-15.563-.622c-6.884-83.518-77.046-149.378-162.31-149.378h-11.877c-2.31-9.741-3.896-19.759-4.679-30h59.429c33.084 0 60-26.916 60-60 0-10.925-2.949-21.167-8.072-30.01h166.144c-5.123 8.843-8.072 19.085-8.072 30.01 0 33.084 26.916 60 60 59.99h59.429c-.783 10.251-2.37 20.269-4.679 30.01zm36.25-60h-91c-16.542 0-30-13.458-30-30s13.458-30 30-30h91z" fill="url(#SVGID_1_)"/></g></g></svg>