<svg id="Capa_1" enable-background="new 0 0 512 512" height="512" viewBox="0 0 512 512" width="512" xmlns="http://www.w3.org/2000/svg"><g><path d="m377.806 160.316v-1.117c0-17.124-12.394-31.396-28.681-34.346-1.26-10.8-4.731-21.29-10.199-30.671-2.086-3.578-6.678-4.788-10.256-2.702s-4.789 6.678-2.703 10.257c4.04 6.93 6.738 14.608 7.956 22.548h-155.773c4.369-28.412 27.557-51.07 56.693-54.109 3.82-.398 6.722-3.619 6.722-7.46v-33.208c0-8 6.508-14.508 14.508-14.508s14.507 6.508 14.507 14.508v33.217c0 3.838 2.897 7.057 6.714 7.459 9.682 1.02 18.782 4.146 27.047 9.29 3.519 2.188 8.143 1.112 10.331-2.404 2.189-3.517 1.113-8.142-2.404-10.33-8.274-5.15-17.226-8.662-26.688-10.479v-26.753c0-16.271-13.237-29.508-29.508-29.508s-29.508 13.237-29.508 29.508v26.744c-33.692 6.495-59.633 34.459-63.62 68.589-16.321 2.921-28.75 17.21-28.75 34.358v1.117c0 9.785 5.339 18.341 13.254 22.925-8.444 12.2-12.725 24.982-12.725 38.122v255.062c0 19.616 15.767 35.575 35.147 35.575h14.145c4.142 0 7.5-3.357 7.5-7.5s-3.358-7.5-7.5-7.5h-14.145c-11.109 0-20.147-9.23-20.147-20.575v-30.094h29.392c4.142 0 7.5-3.357 7.5-7.5s-3.358-7.5-7.5-7.5h-29.392v-38.01h48.01c4.142 0 7.5-3.357 7.5-7.5s-3.358-7.5-7.5-7.5h-48.01v-38.01h29.392c4.142 0 7.5-3.357 7.5-7.5s-3.358-7.5-7.5-7.5h-29.392v-38.011h48.01c4.142 0 7.5-3.357 7.5-7.5s-3.358-7.5-7.5-7.5h-48.01v-38.01h29.392c4.142 0 7.5-3.357 7.5-7.5s-3.358-7.5-7.5-7.5h-29.34c.514-11.024 5.13-21.932 13.754-32.495h184.943c9.164 11.225 13.806 22.839 13.806 34.567v255.062c0 11.345-9.038 20.575-20.147 20.575h-123.116c-4.142 0-7.5 3.357-7.5 7.5s3.358 7.5 7.5 7.5h123.115c19.38 0 35.147-15.959 35.147-35.575v-255.061c0-13.14-4.281-25.922-12.725-38.122 7.915-4.583 13.254-13.139 13.254-22.925zm-15 0c0 5.417-3.716 10.924-11.626 11.479h-190.359c-.157-.011-.315-.021-.474-.025-.04-.001-.079.003-.119.003-6.122-.237-11.034-5.277-11.034-11.457v-1.117c0-10.98 8.934-19.914 19.915-19.914h.833 172.188.761c10.981 0 19.915 8.934 19.915 19.914z"/></g></svg>