<svg width="742" height="725" viewBox="0 0 742 725" fill="none" xmlns="http://www.w3.org/2000/svg">
<path d="M292.184 218.884C292.192 216.254 291.1 213.677 289.201 211.811C287.296 209.939 284.672 208.863 281.972 208.848C279.273 208.847 276.643 209.907 274.726 211.769C272.817 213.624 271.708 216.195 271.7 218.825C271.7 221.463 272.778 224.041 274.683 225.913C276.581 227.778 279.22 228.854 281.912 228.862C284.612 228.862 287.249 227.809 289.159 225.954C291.068 224.099 292.17 221.522 292.184 218.884Z" fill="black"/>
<path d="M640.583 408.615C645.486 410.778 649.722 412.645 653.543 413.492C657.841 414.445 661.797 414.915 665.64 414.926C694.999 415.01 718.958 391.733 719.047 363.036C719.129 334.341 695.313 310.927 665.952 310.842C662.118 310.831 658.159 311.277 653.846 312.205C650.022 313.031 645.776 314.874 640.861 317.007C636.133 319.061 625.219 323.798 621.71 322.98C621.589 322.74 621.388 322.256 621.206 321.404C617.678 304.844 605.801 272.308 584.91 258.413L584.944 247.048C584.974 237.078 581.029 227.694 573.834 220.623C566.64 213.553 557.059 209.643 546.855 209.613C536.651 209.584 527.046 213.439 519.809 220.468C516.119 224.052 513.276 228.245 511.365 232.814C498.487 218.5 479.648 209.42 458.656 209.359L315.447 208.949C309.795 208.933 305.199 213.398 305.181 218.921C305.165 224.443 309.734 228.934 315.387 228.951L396.645 229.184C396.645 229.184 396.594 246.424 396.586 249.186C396.577 251.948 397.715 254.451 399.563 256.266C401.41 258.082 403.966 259.209 406.792 259.217C412.444 259.233 417.04 254.768 417.057 249.245C417.074 243.723 417.117 229.244 417.117 229.244L458.596 229.363C471.951 229.402 484.49 234.519 493.906 243.772C503.321 253.025 508.485 265.307 508.446 278.357L507.941 446.503C507.902 459.552 502.664 471.805 493.193 481.004C483.723 490.203 471.152 495.248 457.797 495.21L178.143 494.411C160.064 494.36 145.398 479.948 145.451 462.281L146.056 260.506C146.109 242.841 160.861 228.512 178.941 228.564L245.543 228.755C251.195 228.771 255.792 224.306 255.809 218.783C255.827 213.26 251.256 208.769 245.603 208.752L179.001 208.561C149.633 208.478 125.672 231.753 125.585 260.446L124.98 462.223C124.937 476.571 130.87 489.596 140.486 499.047C150.102 508.497 163.399 514.372 178.083 514.414L457.737 515.216C478.729 515.276 497.623 506.303 510.587 492.064C512.469 496.643 515.288 500.852 518.956 504.458C526.151 511.528 535.732 515.438 545.937 515.468C566.999 515.529 584.188 498.833 584.25 478.253L584.284 466.889C605.258 453.114 617.329 420.647 620.957 404.106C621.144 403.256 621.347 402.773 621.47 402.534C624.985 401.736 635.866 406.536 640.583 408.615ZM563.83 461.058C563.83 461.062 563.83 461.067 563.83 461.071L563.779 478.193C563.749 487.746 555.772 495.495 545.995 495.466C541.261 495.452 536.813 493.637 533.475 490.356C530.136 487.074 528.305 482.719 528.319 478.091L529.013 246.89C529.027 242.264 530.885 237.919 534.243 234.656C537.601 231.394 542.06 229.605 546.796 229.62C551.683 229.633 556.11 231.589 559.311 234.735C562.512 237.881 564.488 242.218 564.473 246.993L564.422 264.123C564.422 264.123 564.421 264.127 564.422 264.129L563.83 461.058ZM600.94 399.915C598.073 412.984 591.926 427.768 584.369 438.469L584.824 286.834C592.318 297.577 598.375 312.396 601.163 325.483C603.084 334.493 608.204 338.745 612.161 340.728C623.526 346.421 637.747 340.247 649.172 335.286C652.582 333.806 656.449 332.126 658.254 331.737C661.077 331.13 663.574 330.838 665.89 330.844C683.961 330.897 698.624 345.312 698.572 362.976C698.517 380.643 683.77 394.975 665.698 394.924C663.38 394.917 660.886 394.611 658.073 393.986C656.263 393.584 652.406 391.883 649.003 390.383C637.608 385.358 623.426 379.104 612.028 384.731C608.06 386.692 602.914 390.917 600.94 399.915Z" fill="black"/>
<path d="M327.673 485.61L327.788 447.522C327.798 443.956 324.847 441.055 321.196 441.044C317.546 441.033 314.577 443.917 314.566 447.484L314.451 485.573C314.446 487.356 315.181 488.973 316.375 490.146C317.567 491.318 319.218 492.047 321.043 492.051C324.693 492.061 327.662 489.178 327.673 485.61Z" fill="black"/>
<path d="M283.213 485.483L283.327 447.395C283.339 443.828 280.387 440.927 276.736 440.917C273.086 440.906 270.117 443.79 270.106 447.357L269.991 485.446C269.986 487.229 270.721 488.846 271.914 490.018C273.107 491.191 274.758 491.919 276.583 491.924C280.233 491.934 283.202 489.05 283.213 485.483Z" fill="black"/>
<path d="M238.755 485.355L238.869 447.267C238.88 443.7 235.928 440.8 232.278 440.789C228.627 440.779 225.659 443.662 225.648 447.229L225.533 485.318C225.528 487.102 226.263 488.718 227.456 489.891C228.649 491.063 230.3 491.791 232.125 491.796C235.775 491.807 238.744 488.923 238.755 485.355Z" fill="black"/>
<path d="M194.295 485.228L194.409 447.139C194.42 443.573 191.469 440.672 187.818 440.662C184.168 440.651 181.199 443.535 181.188 447.102L181.074 485.19C181.068 486.974 181.803 488.591 182.996 489.763C184.189 490.936 185.84 491.664 187.665 491.669C191.316 491.679 194.284 488.796 194.295 485.228Z" fill="black"/>
</svg>
