<svg id="Layer_1" height="512" viewBox="0 0 512 512" width="512" xmlns="http://www.w3.org/2000/svg" data-name="Layer 1"><path d="m339.793 412.79a44.593 44.593 0 0 0 11.377 1.482c19.726 0 39.971-13.159 59.177-38.654 43.205-57.356 71.8-168.048 43.588-215.468q-.7-1.184-1.421-2.329c-22.037-35.217-64.7-53.187-106.16-44.717-9.478 1.937-23.577 5.891-36.913 13.731-13.533 7.957-23.017 17.983-28.187 29.8-8.564 19.579-4.84 42.826 11.07 69.1 21.221 35.04 16.092 71.213 11.567 103.129-5.236 36.927-10.181 71.808 35.902 83.926zm-37.2-193.274c-13.77-22.737-17.249-42.274-10.34-58.07 11.162-25.515 46.074-34.453 56.508-36.585a90.662 90.662 0 0 1 18.136-1.834c30.379 0 59.26 15.288 75.449 41.159q.646 1.033 1.282 2.1c11.445 19.235 12.754 54 3.589 95.384-8.856 39.967-26.217 79.865-46.455 106.73-24.953 33.126-45.268 36.117-57.917 32.788-34.164-8.984-32.778-30.4-27.072-70.639 4.568-32.228 10.254-72.332-13.185-111.033z"/><path d="m303.624 111.85a29.467 29.467 0 0 0 5.441-.507c9.562-1.8 17.606-8.04 22.651-17.583 4.8-9.089 6.307-20.174 4.23-31.214-4.381-23.3-23.565-39.32-42.77-35.714-9.561 1.795-17.6 8.04-22.65 17.583-4.8 9.088-6.306 20.173-4.23 31.213 3.966 21.093 20.067 36.222 37.328 36.222zm-22.489-61.827c3.3-6.243 8.363-10.291 14.256-11.4a17.858 17.858 0 0 1 3.31-.309c11.56 0 22.568 11.11 25.452 26.447a36 36 0 0 1 -3.046 23.387c-3.3 6.244-8.363 10.291-14.256 11.4-12.7 2.382-25.6-9.341-28.762-26.138a35.991 35.991 0 0 1 3.046-23.387z"/><path d="m367.776 100.767q.921.066 1.834.066c15.416 0 28.69-14.1 30.015-32.364a37.718 37.718 0 0 0 -6.471-24.5c-5.079-7.184-12.319-11.463-20.384-12.048-16.176-1.172-30.471 13.316-31.849 32.3a37.718 37.718 0 0 0 6.471 24.5c5.079 7.179 12.318 11.461 20.384 12.046zm-14.886-35.684c.867-11.956 8.848-21.232 18.026-21.232.327 0 .657.011.987.035 4.417.32 8.485 2.808 11.453 7.007a25.707 25.707 0 0 1 4.3 16.708c-.9 12.382-9.42 21.89-19.013 21.2-4.417-.32-8.485-2.808-11.453-7.006a25.708 25.708 0 0 1 -4.3-16.712z"/><path d="m422.855 105.69c.463.034.921.05 1.38.05 11.438 0 21.277-10.324 22.247-23.7a27.466 27.466 0 0 0 -4.729-17.84 20.373 20.373 0 0 0 -15.238-8.967c-12-.869-22.619 9.739-23.628 23.65a27.469 27.469 0 0 0 4.729 17.843 20.372 20.372 0 0 0 15.239 8.964zm-8-25.942c.5-6.96 5.153-12.569 10.284-12.569.168 0 .337.006.508.018a8.611 8.611 0 0 1 6.307 3.927 15.672 15.672 0 0 1 2.559 10.046c-.522 7.19-5.453 12.939-10.792 12.551a8.6 8.6 0 0 1 -6.307-3.927 15.67 15.67 0 0 1 -2.558-10.046z"/><path d="m441.743 119.584a18.485 18.485 0 0 0 11.1 11.309 17.143 17.143 0 0 0 5.666.958c8.491 0 16.848-6.172 20.19-15.728a24.326 24.326 0 0 0 .074-16.347 18.488 18.488 0 0 0 -11.095-11.309c-10.167-3.552-21.765 3.075-25.856 14.77a24.32 24.32 0 0 0 -.079 16.347zm11.4-12.385c1.6-4.563 5.343-7.7 8.8-7.7a5.352 5.352 0 0 1 1.771.3 6.627 6.627 0 0 1 3.785 4.11 12.49 12.49 0 0 1 -.134 8.256c-1.874 5.359-6.717 8.752-10.572 7.4a6.624 6.624 0 0 1 -3.785-4.11 12.481 12.481 0 0 1 .136-8.255z"/><path d="m466.2 134.915a24.327 24.327 0 0 0 -5.834 15.272 18.477 18.477 0 0 0 6.4 14.493 17.785 17.785 0 0 0 11.533 4.06 23.679 23.679 0 0 0 17.87-8.774 24.327 24.327 0 0 0 5.831-15.272 18.474 18.474 0 0 0 -6.4-14.493c-8.259-6.901-21.45-4.788-29.4 4.714zm9.2 7.7a11.85 11.85 0 0 1 8.633-4.507 5.928 5.928 0 0 1 3.873 1.3 6.617 6.617 0 0 1 2.094 5.178 12.489 12.489 0 0 1 -3.037 7.679c-3.646 4.356-9.372 5.826-12.506 3.206a6.618 6.618 0 0 1 -2.092-5.176 12.5 12.5 0 0 1 3.035-7.679z"/><path d="m151.193 204.825c-42.163 3.625-77.976 32.946-89.115 72.962q-.363 1.3-.7 2.638c-13.11 51.525 34.31 136.744 85.465 178.517 21.592 17.632 42.612 26.693 61.178 26.692a50.533 50.533 0 0 0 22.227-4.962c19.691-9.521 29.261-21.507 30.119-37.72.738-13.952-5.171-28.93-12.012-46.272-11.1-28.131-23.677-60.016-13.393-99.161 7.8-29.7 4.779-53.043-8.986-69.392-8.31-9.869-20.25-16.8-35.486-20.594-15.014-3.74-29.656-3.533-39.297-2.708zm65.6 31.031c11.106 13.19 13.313 32.911 6.56 58.614-11.282 42.944 2.645 78.248 13.836 106.614 14.075 35.676 19.437 53.5-12.168 68.785a38.783 38.783 0 0 1 -17.085 3.8c-20.47 0-41.338-14.087-53.506-24.023-24.486-20-47.754-49.844-63.837-81.894-16.47-32.821-22.882-63.572-17.591-84.368q.306-1.2.634-2.379c9.8-35.217 41.382-61.027 78.583-64.225 2.309-.2 5.819-.417 10.086-.417 15.346.001 40.453 2.821 54.495 19.493z"/><path d="m183.453 192.723a29.625 29.625 0 0 0 3-.153c9.678-.987 18.218-6.535 24.045-15.622 5.55-8.653 7.979-19.573 6.837-30.748-2.41-23.584-20.181-41.151-39.622-39.176-9.678.988-18.218 6.536-24.046 15.622-5.55 8.654-7.978 19.574-6.836 30.749 2.28 22.368 18.383 39.329 36.622 39.328zm-19.69-63.6c3.813-5.945 9.2-9.555 15.163-10.163a17.678 17.678 0 0 1 1.82-.093c12.137 0 22.991 12.353 24.646 28.549a36 36 0 0 1 -5 23.05c-3.813 5.945-9.2 9.554-15.164 10.163a17.929 17.929 0 0 1 -1.819.093c-12.137 0-22.992-12.353-24.646-28.55a35.986 35.986 0 0 1 5-23.046z"/><path d="m118.177 200.686a25.4 25.4 0 0 0 8.968-1.622c7.57-2.847 13.3-9 16.131-17.332a37.711 37.711 0 0 0 -.748-25.331c-6.707-17.811-24.517-27.655-39.7-21.946-7.57 2.846-13.3 9-16.132 17.331a37.721 37.721 0 0 0 .749 25.332c5.412 14.382 18.065 23.568 30.732 23.568zm-20.122-45.037c1.654-4.865 4.848-8.4 8.993-9.961 9-3.384 19.874 3.32 24.249 14.941a25.705 25.705 0 0 1 .618 17.24c-1.654 4.866-4.848 8.4-8.993 9.962-9 3.387-19.874-3.32-24.25-14.941a25.708 25.708 0 0 1 -.617-17.241z"/><path d="m68.985 220.611a19.11 19.11 0 0 0 6.74-1.219 20.366 20.366 0 0 0 12.069-12.92 27.465 27.465 0 0 0 -.527-18.451c-4.915-13.053-18.086-20.221-29.367-15.983a20.364 20.364 0 0 0 -12.07 12.919 27.466 27.466 0 0 0 .528 18.451c3.957 10.508 13.265 17.203 22.627 17.203zm-11.794-31.79a8.606 8.606 0 0 1 4.932-5.551 7.238 7.238 0 0 1 2.556-.456c4.438 0 9.235 3.8 11.357 9.435a15.668 15.668 0 0 1 .4 10.359 8.6 8.6 0 0 1 -4.932 5.551c-5 1.883-11.372-2.232-13.913-8.979a15.674 15.674 0 0 1 -.4-10.359z"/><path d="m43.756 255.32a17.6 17.6 0 0 0 10.368-3.264 18.483 18.483 0 0 0 7.432-13.991 24.324 24.324 0 0 0 -4.709-15.654c-7.24-10.056-20.243-13.124-28.984-6.836a18.478 18.478 0 0 0 -7.432 13.99 24.316 24.316 0 0 0 4.709 15.655c4.694 6.519 11.81 10.1 18.616 10.1zm-11.35-24.991a6.621 6.621 0 0 1 2.463-5.011 5.768 5.768 0 0 1 3.418-1.036c3.008 0 6.483 1.892 8.822 5.141a12.486 12.486 0 0 1 2.471 7.877 6.624 6.624 0 0 1 -2.462 5.013c-3.317 2.383-8.922.5-12.24-4.106a12.5 12.5 0 0 1 -2.472-7.878z"/><path d="m20.825 292.213a24.632 24.632 0 0 0 13.575 4.206c6.45 0 12.457-2.762 15.955-8.019a18.47 18.47 0 0 0 2.023-15.711 24.339 24.339 0 0 0 -9.923-12.989c-10.322-6.858-23.571-5.149-29.535 3.813a18.475 18.475 0 0 0 -2.02 15.709 24.337 24.337 0 0 0 9.925 12.991zm2.086-22.055c2.261-3.4 8.17-3.61 12.9-.467a12.5 12.5 0 0 1 5.093 6.505 6.618 6.618 0 0 1 -.536 5.556c-2.262 3.4-8.17 3.61-12.9.467a12.506 12.506 0 0 1 -5.093-6.5 6.619 6.619 0 0 1 .536-5.561z"/><path d="m87.824 318.348a6 6 0 0 0 4.9-6.929q-.285-1.663-.521-3.311a6 6 0 0 0 -11.88 1.7q.26 1.81.574 3.644a6 6 0 0 0 6.929 4.9z"/><path d="m96.763 328.446a6 6 0 1 0 -11.5 3.43c5.444 18.248 14.472 37.927 26.109 56.91a6 6 0 1 0 10.23-6.271c-11.102-18.109-19.688-36.805-24.839-54.069z"/></svg>