<?xml version="1.0" encoding="iso-8859-1"?>
<!-- Generator: Adobe Illustrator 17.1.0, SVG Export Plug-In . SVG Version: 6.00 Build 0)  -->
<!DOCTYPE svg PUBLIC "-//W3C//DTD SVG 1.1//EN" "http://www.w3.org/Graphics/SVG/1.1/DTD/svg11.dtd">
<svg version="1.1" id="Capa_1" xmlns="http://www.w3.org/2000/svg" xmlns:xlink="http://www.w3.org/1999/xlink" x="0px" y="0px"
	 viewBox="0 0 465.082 465.082" style="enable-background:new 0 0 465.082 465.082;" xml:space="preserve">
<g>
	<path d="M76,194.398c1.444,0.353,2.938,0.543,4.46,0.543c4.368,0,8.622-1.545,11.977-4.348c3.834-3.2,6.191-7.702,6.637-12.676
		c0.237-2.646-0.097-5.25-0.929-7.691c2.732,1.344,5.766,2.069,8.898,2.069h0.001c4.709,0,9.295-1.664,12.916-4.688
		c5.185-4.332,7.621-10.736,7.15-17.01c4.921,4.421,11.307,6.905,18.033,6.905h0.001c6.307,0,12.45-2.23,17.298-6.277
		c5.536-4.624,8.94-11.127,9.585-18.312c0.645-7.184-1.546-14.188-6.169-19.724c-5.145-6.161-12.702-9.695-20.736-9.695
		c-6.309,0-12.452,2.23-17.301,6.28c-7.8,6.515-10.984,16.534-9.187,25.872c-3.361-2.369-7.396-3.675-11.607-3.675
		c-4.71,0-9.298,1.665-12.915,4.688c-4.135,3.451-6.677,8.307-7.158,13.67c-0.276,3.07,0.164,6.088,1.22,8.889
		c-2.396-1.086-5.023-1.67-7.73-1.67c-4.367,0-8.62,1.544-11.976,4.347c-7.294,6.093-8.747,16.607-3.749,24.412
		c-1.153-0.24-2.336-0.375-3.538-0.375c-4.024,0-7.943,1.422-11.037,4.004c-7.291,6.09-8.269,16.975-2.18,24.267
		c3.283,3.932,8.106,6.186,13.231,6.187c0.001,0,0.001,0,0.001,0c4.024,0,7.943-1.423,11.037-4.006
		C78.798,210.9,80.224,201.534,76,194.398z M134.874,118.217c2.873-2.399,6.513-3.722,10.248-3.722
		c4.764,0,9.244,2.095,12.294,5.747c2.739,3.279,4.038,7.431,3.655,11.688c-0.382,4.258-2.399,8.111-5.68,10.852
		c-2.873,2.399-6.512,3.721-10.247,3.721c-4.765,0-9.244-2.094-12.292-5.744C127.195,133.986,128.102,123.873,134.874,118.217z
		 M97.91,151.316c0.219-2.438,1.373-4.643,3.253-6.212c1.668-1.394,3.696-2.131,5.864-2.131c2.728,0,5.293,1.199,7.038,3.289
		c3.237,3.877,2.718,9.665-1.156,12.903c-1.67,1.394-3.697,2.13-5.865,2.13c-2.729,0-5.295-1.199-7.041-3.29
		C98.434,156.128,97.69,153.752,97.91,151.316z M65.181,207.943c-1.433,1.197-2.958,1.448-3.985,1.448
		c-1.856,0-3.602-0.815-4.789-2.237c-2.201-2.636-1.849-6.571,0.786-8.772c1.434-1.196,2.96-1.447,3.987-1.447
		c1.856,0,3.602,0.815,4.788,2.234C68.17,201.805,67.817,205.742,65.181,207.943z M74.548,181.179
		c-2.721-3.258-2.285-8.12,0.972-10.841c1.4-1.17,3.103-1.788,4.923-1.788c2.292,0,4.448,1.007,5.914,2.763
		c1.318,1.579,1.943,3.575,1.76,5.622c-0.183,2.046-1.152,3.897-2.731,5.216c-1.401,1.171-3.104,1.79-4.926,1.79
		C78.168,183.941,76.014,182.934,74.548,181.179z"/>
	<path d="M359.287,186.547c-20.451-17.082-42.037-26.112-62.424-26.112c-20.327,0-38.263,9.225-47.98,24.674
		c-8.551,13.598-9.413,29.804-2.366,44.466c0.087,0.18,0.195,0.376,0.302,0.546c0.47,0.754,11.348,18.646-2.093,34.734
		c-3.443,4.124-7.314,6.841-12.063,8.484c-4.748-1.643-8.619-4.36-12.063-8.485c-13.439-16.088-2.562-33.98-2.104-34.715
		c0.115-0.182,0.221-0.37,0.313-0.564c9.698-20.179,4.071-43.189-14.002-57.259c-11.573-9.01-26.887-13.113-43.127-11.552
		c-18.313,1.76-37.554,10.676-55.641,25.783c-18.872,15.764-28.938,33.768-29.919,53.513c-1.98,39.887,33.845,76.414,51.062,93.968
		c1.615,1.646,3.073,3.133,4.327,4.445c8.611,9.016,52.53,52.572,96.76,52.568c1.462-0.001,2.931-0.055,4.394-0.153
		c1.443,0.098,2.915,0.152,4.387,0.152c0.003,0,0.001,0,0.003,0c44.299,0,88.378-43.789,96.765-52.567
		c1.254-1.313,2.711-2.799,4.326-4.445c17.217-17.554,53.042-54.081,51.061-93.968C388.225,220.315,378.159,202.311,359.287,186.547
		z M260.422,368.331c-8.268,6.906-17.743,10.797-28.163,11.565c-41.732,3.063-87.693-43.68-92.795-49.021
		c-1.283-1.344-2.775-2.864-4.428-4.55c-16.122-16.438-49.67-50.643-47.928-85.72c0.821-16.554,9.563-31.901,25.983-45.616
		c16.378-13.681,33.544-21.73,49.642-23.276c13.425-1.283,25.97,2.007,35.317,9.282c13.807,10.748,18.194,28.215,10.972,43.548
		c-5.463,8.852-11.62,29.699,3.135,47.362c5.209,6.238,11.42,10.327,18.987,12.5c5.306,1.524,10.601,1.955,15.722,2.372
		c10.615,0.864,19.789,1.612,28.081,11.469c0.622,0.84,6.753,9.386,8.358,21.813C285.563,337.523,277.864,353.764,260.422,368.331z
		 M330.291,326.326c-1.652,1.686-3.145,3.206-4.427,4.55c-4.957,5.188-18.422,18.521-36.37,30.244
		c-4.773,3.118-9.45,5.855-14.022,8.207c11.45-11.944,21.548-28.982,18.744-50.677c-2.06-15.947-10.258-26.734-10.605-27.186
		c-0.044-0.058-0.089-0.113-0.136-0.169c-10.756-12.877-23.077-14.426-34.141-15.352c1.337-1.229,2.613-2.574,3.835-4.037
		c14.756-17.664,8.599-38.513,3.136-47.364c-5.236-11.109-4.552-23.331,1.891-33.577c7.691-12.23,22.146-19.53,38.668-19.53
		c17.776,0,36.924,8.145,55.373,23.556c16.419,13.714,25.161,29.062,25.982,45.615C379.96,275.683,346.413,309.887,330.291,326.326z
		"/>
	<path d="M415.183,189.938c-3.093-2.582-7.012-4.004-11.036-4.004c-1.202,0-2.385,0.135-3.538,0.375
		c4.998-7.806,3.545-18.319-3.749-24.412c-3.355-2.803-7.608-4.347-11.975-4.347c-2.707,0-5.333,0.584-7.729,1.67
		c1.055-2.801,1.495-5.819,1.219-8.889c-0.481-5.364-3.023-10.219-7.156-13.669c-3.619-3.024-8.207-4.689-12.917-4.689
		c-4.212,0-8.246,1.306-11.608,3.675c1.799-9.339-1.387-19.357-9.186-25.872c-4.849-4.05-10.992-6.28-17.301-6.28
		c-8.034,0-15.592,3.534-20.735,9.694c-4.624,5.535-6.815,12.54-6.17,19.725c0.645,7.185,4.049,13.688,9.585,18.312
		c4.848,4.048,10.99,6.277,17.298,6.277h0.001c6.725,0,13.112-2.484,18.033-6.906c-0.471,6.275,1.967,12.68,7.152,17.012
		c3.619,3.021,8.205,4.686,12.915,4.686c0.001,0,0,0,0.001,0c3.132,0,6.165-0.726,8.897-2.069c-0.832,2.441-1.166,5.046-0.93,7.691
		c0.446,4.974,2.804,9.475,6.636,12.675c3.355,2.804,7.609,4.348,11.978,4.349c0.001,0,0.001,0,0.001,0
		c1.522,0,3.017-0.19,4.461-0.543c-4.225,7.137-2.8,16.503,3.767,21.988c3.093,2.582,7.012,4.005,11.036,4.005h0.001
		c5.125,0,9.947-2.255,13.231-6.187c2.949-3.531,4.347-8,3.936-12.583C420.888,197.037,418.716,192.888,415.183,189.938z
		 M332.475,140.759c-3.049,3.65-7.528,5.744-12.291,5.744c-3.735,0-7.375-1.321-10.247-3.72c-3.281-2.741-5.299-6.595-5.681-10.853
		c-0.383-4.258,0.915-8.409,3.656-11.689c3.049-3.651,7.529-5.746,12.293-5.746c3.735,0,7.375,1.322,10.249,3.723
		C337.226,123.873,338.132,133.986,332.475,140.759z M365.326,158.005c-1.747,2.091-4.313,3.29-7.041,3.29
		c-2.168,0-4.197-0.737-5.864-2.129c-3.876-3.239-4.396-9.027-1.158-12.904c1.745-2.09,4.311-3.289,7.038-3.289
		c2.168,0,4.196,0.737,5.866,2.132c1.878,1.568,3.032,3.774,3.252,6.211C367.637,153.752,366.894,156.128,365.326,158.005z
		 M390.78,181.178c-1.467,1.756-3.621,2.763-5.911,2.763h-0.001c-1.821,0-3.524-0.619-4.928-1.791
		c-1.577-1.317-2.547-3.169-2.73-5.215c-0.184-2.047,0.441-4.043,1.761-5.622c1.466-1.756,3.622-2.763,5.914-2.763
		c1.82,0,3.522,0.618,4.923,1.788C393.064,173.059,393.5,177.921,390.78,181.178z M408.92,207.154
		c-1.188,1.422-2.933,2.237-4.788,2.237c-1.027,0-2.554-0.252-3.985-1.447c-2.636-2.202-2.989-6.139-0.789-8.773
		c1.188-1.421,2.933-2.236,4.789-2.236c1.027,0,2.553,0.251,3.985,1.447c1.277,1.066,2.063,2.566,2.211,4.224
		C410.492,204.261,409.987,205.877,408.92,207.154z"/>
	<path d="M440.898,85.33c-19.412-30.976-59.913-54.335-94.207-54.335c-53.479,0-98.87,39.312-114.148,93.369
		c-15.281-54.058-60.679-93.369-114.164-93.369c-34.287,0-74.783,23.359-94.197,54.335c-17.67,28.186-26.319,63.958-23.73,98.148
		c6.354,83.27,57.199,160.302,139.497,211.345c24.835,15.407,54.609,28.175,91.023,39.032c0.135,0.04,0.271,0.06,0.405,0.09
		c0.112,0.024,0.222,0.057,0.336,0.074c0.267,0.041,0.532,0.063,0.797,0.064c0.01,0,0.021,0.003,0.031,0.003
		c0.001,0,0.001,0,0.001,0c0.002,0,0.002,0,0.002,0c0.012,0,0.022-0.003,0.033-0.003c0.264-0.002,0.53-0.023,0.797-0.065
		c0.11-0.017,0.216-0.048,0.324-0.071c0.139-0.03,0.277-0.051,0.416-0.092c36.424-10.86,66.198-23.628,91.022-39.032
		c82.305-51.042,133.148-128.075,139.493-211.348C467.223,149.28,458.573,113.507,440.898,85.33z M453.661,182.642
		c-6.075,79.731-55.033,153.662-134.322,202.834c-23.628,14.662-52.043,26.887-86.796,37.359
		c-34.744-10.47-63.159-22.695-86.796-37.359C66.463,336.303,17.503,262.373,11.419,182.645
		c-2.415-31.894,5.633-65.234,22.082-91.473c8.228-13.127,21.271-25.399,36.729-34.556c15.917-9.429,33.017-14.621,48.148-14.621
		c59.918,0,108.664,54.894,108.664,122.366c0,3.037,2.463,5.5,5.5,5.5c3.037,0,5.5-2.463,5.5-5.5
		c0-67.473,48.739-122.366,108.648-122.366c15.135,0,32.236,5.192,48.155,14.621c15.46,9.156,28.505,21.429,36.732,34.558
		C448.032,117.403,456.081,150.742,453.661,182.642z"/>
</g>
<g>
</g>
<g>
</g>
<g>
</g>
<g>
</g>
<g>
</g>
<g>
</g>
<g>
</g>
<g>
</g>
<g>
</g>
<g>
</g>
<g>
</g>
<g>
</g>
<g>
</g>
<g>
</g>
<g>
</g>
</svg>
