<svg id="Gradient" height="512" viewBox="0 0 512 512" width="512" xmlns="http://www.w3.org/2000/svg" xmlns:xlink="http://www.w3.org/1999/xlink"><linearGradient id="linear-gradient" gradientUnits="userSpaceOnUse" x1="256" x2="256" y1="496" y2="16"><stop offset="0" stop-color="#12c2e9"/><stop offset=".5" stop-color="#c471ed"/><stop offset="1" stop-color="#f64f59"/></linearGradient><path d="m256 48a32 32 0 1 0 -32 32 32.036 32.036 0 0 0 32-32zm-32 16a16 16 0 1 1 16-16 16.019 16.019 0 0 1 -16 16zm-192 32a24 24 0 0 0 48 0c0-.467-.017-.93-.043-1.391a23.987 23.987 0 0 0 31.2-16.306 23.954 23.954 0 0 0 29.069-9.4 24 24 0 1 0 -8.446-33.8 23.974 23.974 0 0 0 -34.934 14.597 23.985 23.985 0 0 0 -32.846 22.3c0 .467.017.93.043 1.391a23.992 23.992 0 0 0 -32.043 22.609zm120-56a8 8 0 1 1 -8 8 8.009 8.009 0 0 1 8-8zm-32 8a8 8 0 1 1 -8 8 8.009 8.009 0 0 1 8-8zm-32 16a8 8 0 1 1 -8 8 8.009 8.009 0 0 1 8-8zm-32 24a8 8 0 1 1 -8 8 8.009 8.009 0 0 1 8-8zm232 112a32 32 0 1 0 -32-32 32.036 32.036 0 0 0 32 32zm0-48a16 16 0 1 1 -16 16 16.019 16.019 0 0 1 16-16zm192 64a23.992 23.992 0 0 0 -32.043-22.609c.026-.461.043-.924.043-1.391a23.985 23.985 0 0 0 -32.846-22.3 23.974 23.974 0 0 0 -34.931-14.6 24 24 0 1 0 -8.446 33.8 23.954 23.954 0 0 0 29.069 9.4 23.987 23.987 0 0 0 31.2 16.306c-.026.461-.043.924-.043 1.391a24 24 0 0 0 48 0zm-120-40a8 8 0 1 1 8-8 8.009 8.009 0 0 1 -8 8zm32 8a8 8 0 1 1 8-8 8.009 8.009 0 0 1 -8 8zm32 16a8 8 0 1 1 8-8 8.009 8.009 0 0 1 -8 8zm24 16a8 8 0 1 1 8 8 8.009 8.009 0 0 1 -8-8zm-232.934 3.768c2.574-4.377 24.934-43.579 24.934-83.768 0-16.755-8.313-31.12-23.408-40.449-23.962-14.81-61-14.29-92.17 1.294-31.371 15.685-50.7 36.9-59.085 64.856-10.6 35.333-2.732 81.634 23.385 137.62a232.974 232.974 0 0 0 21.793 37.363c18.841 26.088 38.185 39.316 57.485 39.316 18.531 0 34.987-9.431 45.149-25.873 13.049-21.114 13.836-50.045 2.006-73.7-13.306-26.618-1.325-53.983-.089-56.659zm-15.527 121.947c-7.288 11.791-18.488 18.285-31.539 18.285-23.822 0-47.208-33.944-59.1-56h11.1a8 8 0 0 0 0-16h-18.871q-3.7-8.168-6.827-16h49.698a8 8 0 0 0 0-16h-55.643c-12.227-35.854-14.827-65.927-7.694-89.7 7.05-23.5 23.7-41.538 50.915-55.144a97.832 97.832 0 0 1 43.14-10.476q3.861 0 7.6.36c-12.643 26.83-38.847 74.66-74.963 100.45a8 8 0 1 0 9.3 13.022 180.893 180.893 0 0 0 29.4-26.96c8.141 12.125 16.7 21.223 25.515 27.1a8 8 0 0 0 8.878-13.31c-7.85-5.236-15.973-14.408-23.673-26.672 13.34-17.132 27.807-39.978 41.6-70.172a51.494 51.494 0 0 1 9.815 4.66c7.21 4.463 15.81 12.742 15.81 26.842 0 37.231-22.634 75.507-22.863 75.889-.1.173-.2.352-.292.533-.727 1.453-17.587 35.982 0 71.156 9.406 18.813 8.893 41.633-1.306 58.137zm247.124-60.015c-8.387-27.956-27.714-49.171-59.085-64.856-31.168-15.584-68.207-16.1-92.17-1.294-15.095 9.33-23.408 23.695-23.408 40.45 0 40.189 22.36 79.391 24.934 83.768 1.236 2.676 13.217 30.041-.089 56.654-11.83 23.66-11.043 52.591 2.006 73.7 10.162 16.447 26.618 25.878 45.149 25.878 19.3 0 38.644-13.228 57.485-39.316a232.974 232.974 0 0 0 21.793-37.363c26.122-55.986 33.984-102.287 23.385-137.621zm-23.02 94.3h-55.643a8 8 0 0 0 0 16h49.7q-3.138 7.838-6.827 16h-18.873a8 8 0 0 0 0 16h11.036a215.291 215.291 0 0 1 -14.521 23.316c-10.769 14.911-27.233 32.684-44.515 32.684-13.051 0-24.251-6.494-31.539-18.285-10.2-16.5-10.712-39.324-1.306-58.137 17.587-35.174.727-69.7 0-71.156-.09-.18-.189-.36-.292-.533-.229-.382-22.863-38.658-22.863-75.889 0-14.1 8.6-22.379 15.819-26.839a51.5 51.5 0 0 1 9.815-4.661c13.793 30.194 28.26 53.041 41.6 70.173-7.7 12.264-15.823 21.436-23.673 26.672a8 8 0 1 0 8.878 13.31c8.819-5.881 17.374-14.979 25.515-27.1a180.893 180.893 0 0 0 29.4 26.96 8 8 0 0 0 9.3-13.022c-36.116-25.79-62.32-73.62-74.963-100.45q3.731-.354 7.6-.36a97.846 97.846 0 0 1 43.14 10.476c27.211 13.606 43.865 31.643 50.915 55.144 7.124 23.77 4.524 53.843-7.703 89.697z" fill="url(#linear-gradient)"/></svg>